<?xml version="1.0" encoding="UTF-8" standalone="no"?>
<!DOCTYPE svg PUBLIC "-//W3C//DTD SVG 1.1//EN" "http://www.w3.org/Graphics/SVG/1.1/DTD/svg11.dtd">
<svg width="100%" height="100%" viewBox="0 0 32 24" version="1.1" xmlns="http://www.w3.org/2000/svg" xmlns:xlink="http://www.w3.org/1999/xlink" xml:space="preserve" xmlns:serif="http://www.serif.com/" style="fill-rule:evenodd;clip-rule:evenodd;stroke-linejoin:round;stroke-miterlimit:2;">
    <g transform="matrix(1,0,0,1,-655.829,-4682.12)">
        <g transform="matrix(1.38658,0,0,3.74359,0,98.0513)">
            <g transform="matrix(0.7212,0,0,0.115182,403.158,703.35)">
                <path d="M104.74,4578.85C107.78,4578.85 110.26,4573.65 110.26,4567.34C110.26,4563.08 109.22,4560.11 107.86,4559.18C105.94,4558.07 103.46,4555.47 103.46,4547.68C103.46,4538.96 107.38,4532.83 110.26,4530.42C111.14,4529.12 110.82,4525.04 109.46,4524.67C102.82,4528.2 96.82,4538.96 96.82,4556.21C96.82,4572.35 101.46,4578.85 104.74,4578.85ZM122.26,4578.85C125.3,4578.85 127.78,4573.65 127.78,4567.34C127.78,4563.08 126.74,4560.11 125.38,4559.18C123.46,4558.07 120.98,4555.47 120.98,4547.68C120.98,4538.96 124.9,4532.83 127.78,4530.42C128.66,4529.12 128.34,4525.04 126.98,4524.67C120.34,4528.2 114.34,4538.96 114.34,4556.21C114.34,4572.35 118.98,4578.85 122.26,4578.85Z" style="fill:rgb(213,213,213);fill-rule:nonzero;"/>
            </g>
        </g>
    </g>
</svg>
